<svg width="52" height="26" viewBox="0 0 52 36" fill="none" xmlns="http://www.w3.org/2000/svg">
<g clip-path="url(#clip0_3806_222)">
<path d="M0.00195312 36H51.9982V0H0.00195312V36Z" fill="black"/>
<path d="M0.604004 35.3543H51.444V0.655273H0.604004V35.3543Z" fill="white"/>
<path d="M11.8182 19.876L12.8018 21.1056L13.8181 19.8841H14.6324V20.2616L13.3587 21.7973L14.6324 23.4393V19.8841H16.9312C17.366 19.8841 18.0035 20.1033 18.0035 21.0863C18.0035 22.4652 17.1646 22.4816 16.7053 22.4816H15.5115V23.8167H13.8099L12.7704 22.5083L11.7056 23.807H8.32225V19.8752H11.8182V19.876V19.876ZM22.2332 19.876H25.1326V20.7237H23.1205V21.46H25.0767V22.2059H23.1205V22.9846H25.1326V23.8078H22.2332V19.876V19.876ZM19.3105 23.8174H18.4232V19.8849H20.7295C21.1657 19.8849 21.7943 20.0959 21.7943 20.9377C21.7943 21.4132 21.6653 21.7631 21.1814 22.0269C21.6005 22.0796 21.7622 22.3783 21.7622 23.0098L21.7943 23.8174H20.9309L20.907 23.0967C20.8995 22.7639 20.778 22.4303 20.4722 22.4303H19.3105V23.8174V23.8174ZM30.7008 21.4087C31.7922 21.4681 31.8823 22.0618 31.8823 22.6933C31.8823 23.4303 31.326 23.8256 30.7452 23.8256H28.8825V22.9838H30.3343C30.5807 22.9838 30.9472 22.9838 30.9472 22.6049C30.9472 22.4251 30.8824 22.3114 30.6203 22.2802C30.4166 22.2587 30.2125 22.2433 30.008 22.2342C29.0231 22.2059 28.7945 21.6732 28.7945 21.0239C28.7945 20.2868 29.2702 19.8834 29.8511 19.8834H31.7137V20.7267H30.3507C30.0408 20.7311 29.7057 20.6865 29.7057 21.0692C29.7057 21.3099 29.8715 21.3582 30.0804 21.3812C30.1527 21.382 30.6367 21.4087 30.7008 21.4087V21.4087ZM27.3782 21.4087C28.4689 21.4681 28.5597 22.0618 28.5597 22.6933C28.5597 23.4303 28.0027 23.8256 27.4226 23.8256H25.5592V22.9838H27.011C27.2567 22.9838 27.6246 22.9838 27.6246 22.6049C27.6246 22.4251 27.5598 22.3114 27.2977 22.2802C27.1803 22.2624 26.7489 22.2356 26.6854 22.2342C25.7005 22.2059 25.4719 21.6732 25.4719 21.0239C25.4719 20.2868 25.9476 19.8834 26.5278 19.8834H28.3911V20.7267H27.0281C26.7175 20.7311 26.3831 20.6865 26.3831 21.0692C26.3831 21.3099 26.5482 21.3582 26.7585 21.3812C26.8301 21.382 27.314 21.4087 27.3782 21.4087V21.4087ZM15.689 17.0579H14.8016V13.1253H17.108C17.5434 13.1253 18.1734 13.3363 18.1734 14.1781C18.1734 14.6529 18.0444 15.0043 17.5605 15.2673C17.9796 15.32 18.1413 15.6187 18.1413 16.2503L18.1734 17.0579H17.3107L17.2861 16.3379C17.2779 16.0043 17.1578 15.6715 16.8506 15.6715H15.6896V17.0579H15.689V17.0579ZM18.6253 17.0579H19.5119V13.1208H18.6253V17.0579ZM11.3944 13.1253H14.2931V13.9723H12.2831V14.7101H14.2379V15.4568H12.2831V16.2332H14.2931V17.0579H11.3944V13.1253V13.1253ZM4.92045 17.0579H6.70667V14.1395L7.89157 17.0579H8.69833L9.91121 14.1878V17.0579H10.7978V13.1253H9.38292L8.29427 15.7636L7.2097 13.1253H5.81868V16.913L4.26998 13.1253H3.09737L1.5166 17.0579H2.45237L2.79842 16.1804H4.56826L4.92045 17.0579V17.0579ZM24.6159 16.1826H22.8468L22.5001 17.0601H21.3302C20.3466 17.0601 19.9105 16.1626 19.9316 15.0741C19.9617 13.4589 20.8387 13.1231 21.2421 13.1231H22.3997V13.979H21.8516C21.2626 13.979 20.8033 14.0459 20.8033 14.9671V15.2524C20.8074 15.9456 21.1411 16.1098 21.3548 16.1581C21.4073 16.1715 21.5042 16.1767 21.5397 16.1737L21.9233 16.1715L23.1451 13.1253H24.319L25.8309 16.8164V13.1231H27.1407L28.6368 15.8461V13.1231H29.5234V17.0601H28.314L26.7175 14.1803V17.0601H24.9675L24.6159 16.1826V16.1826Z" fill="#9E9E9E"/>
<path d="M31.721 19.2713V1.76685H1.59277V15.3023L2.72238 12.5295H4.6417L5.271 14.1789V12.5295H7.60872L8.31857 14.1626L9.01203 12.5295H17.2538C17.5759 12.5295 18.0114 12.6529 18.2059 13.0385V12.5295H19.9314V13.1262C20.1573 12.7933 20.4958 12.5295 21.1565 12.5295H24.673L25.318 14.1262V12.5295H27.3991L28.1403 13.9167V12.5295H30.0433V17.6546H27.9956L27.1404 16.1456V17.6546H24.544L24.1249 16.6538H23.3018L22.9148 17.6546H21.2855C20.9306 17.6204 20.1088 17.4614 19.9314 16.8655V17.6546H16.8026V16.5319C16.8026 16.3729 16.6736 16.1805 16.4961 16.1805H16.1576V17.6546H9.49595V16.4963L8.99633 17.6546H7.64148L7.12548 16.4784V17.6546H4.46424L4.10931 16.7422H3.25409L2.88346 17.6546H1.59277V34.2102H31.721V24.0635C31.5599 24.2574 31.3019 24.4149 30.9149 24.4149H28.3977V24.0285C28.2045 24.2574 27.9308 24.4149 27.4946 24.4149H20.3989V23.3443C20.3825 23.2031 20.4474 22.9052 20.0925 22.9052H19.8024V24.4149H17.9151V22.6756C17.7213 23.0285 17.3029 23.0448 17.0285 23.0627H16.0279V24.4149H13.512L12.7858 23.449L12.0118 24.4149H7.7384V19.2713H12.0767L12.8343 20.2015L13.609 19.2713H17.0442C17.2858 19.2876 17.7452 19.411 17.9151 19.6918V19.2713H20.8508C21.1088 19.2713 21.6084 19.3931 21.8186 19.7616V19.2713H25.4955V19.7267C25.6886 19.4466 25.9958 19.2713 26.4626 19.2713H28.8174V19.7104C28.9949 19.4288 29.4631 19.2713 29.7375 19.2713H31.721V19.2713ZM40.0125 18.824C40.0125 19.4815 37.713 18.7564 37.713 20.3553C37.713 21.0856 38.2556 21.4162 38.8658 21.4162C39.347 21.4162 39.7163 21.3078 40.0808 20.9385L40.2118 21.3145H41.3715C41.3053 21.1778 41.295 20.9994 41.295 20.7988V19.1539C41.295 18.3143 41.2022 17.6969 39.6733 17.6969C38.3969 17.6969 37.9096 18.133 37.9096 18.8775H39.143C39.1737 18.5759 39.4146 18.5365 39.5934 18.5365C39.7299 18.5365 40.0125 18.5699 40.0125 18.824V18.824ZM46.6851 20.8404V21.3107H47.8372V16.477H46.5561V18.1487C46.2837 17.7995 46.0005 17.6925 45.5937 17.6925C44.8224 17.6925 44.2245 18.4503 44.2245 19.619C44.2245 20.6123 44.718 21.411 45.692 21.411C46.1063 21.411 46.3834 21.2706 46.6851 20.8404V20.8404ZM43.8921 18.9028V17.7125C43.8368 17.7058 43.7808 17.6925 43.7249 17.6925C43.2266 17.6925 42.9113 17.954 42.7325 18.5053H42.7202V17.7935H41.5551V21.31H42.8369V19.9251C42.8369 19.1665 43.1024 18.8976 43.6266 18.8976L43.8921 18.9028V18.9028ZM36.2374 18.3158C36.1937 17.8136 35.9036 17.5246 35.4477 17.5246C34.9357 17.5246 34.6272 18.0015 34.6272 18.934C34.6272 19.6123 34.7631 20.249 35.5023 20.249C35.9718 20.249 36.1937 19.8946 36.2496 19.431H37.6489C37.5205 20.6792 36.6994 21.4296 35.5289 21.4296C34.0614 21.4296 33.1727 20.4519 33.1727 18.8797C33.1727 17.3158 34.1467 16.3425 35.3869 16.3425C36.7431 16.3425 37.5021 17.0743 37.6195 18.3151H36.2374V18.3158V18.3158Z" fill="#9E9E9E"/>
<path d="M15.5118 21.6755H16.6169C16.9793 21.6755 17.1083 21.4467 17.1083 21.1837C17.1083 20.9905 16.9916 20.7327 16.6203 20.7327H15.5118V21.6755ZM11.2214 20.7238H9.20991V21.46H11.1647V22.206H9.20991V22.9846H11.2541L12.2302 21.7981L11.3668 20.7275L11.2214 20.7238ZM19.3102 21.6235H20.4152C20.7777 21.6235 20.9067 21.4474 20.9067 21.1837C20.9067 20.9905 20.79 20.7327 20.4187 20.7327H19.3102V21.6235V21.6235ZM15.6886 14.8639H16.7937C17.1568 14.8639 17.2851 14.6886 17.2851 14.4248C17.2851 14.2324 17.1684 13.9724 16.7971 13.9724H15.6886V14.8639V14.8639ZM4.22529 15.3342H3.14551L3.67516 13.959L4.22529 15.3342ZM23.7215 13.9612L23.1932 15.3357H24.2771L23.7215 13.9612Z" fill="white"/>
<path d="M50.2233 22.3879L39.3701 34.2012H40.9113L50.2233 24.0656V22.3879Z" fill="#3B4095"/>
<path d="M50.2233 25.6935L42.4082 34.2013H43.948L50.2233 27.3719V25.6935Z" fill="#9E9E9E"/>
<path d="M50.2237 28.9998L45.4438 34.2013H46.9864L50.2237 30.6766V28.9998Z" fill="#6CB35E"/>
<path d="M32.8232 32.3408C32.8237 32.0955 32.8685 31.8527 32.9552 31.6262C33.0419 31.3998 33.1688 31.1942 33.3285 31.0211C33.4883 30.8481 33.6778 30.711 33.8862 30.6177C34.0946 30.5244 34.3179 30.4767 34.5433 30.4774C34.7681 30.4772 34.9908 30.5253 35.1986 30.6189C35.4063 30.7124 35.5951 30.8497 35.7541 31.0228C35.9131 31.1958 36.0392 31.4013 36.1251 31.6275C36.2111 31.8537 36.2553 32.096 36.2551 32.3408C36.2561 32.5863 36.2125 32.8295 36.127 33.0566C36.0414 33.2837 35.9155 33.4902 35.7564 33.6642C35.5974 33.8382 35.4084 33.9764 35.2002 34.0707C34.992 34.165 34.7688 34.2136 34.5433 34.2138C34.3172 34.2141 34.0934 34.1659 33.8846 34.0718C33.6757 33.9778 33.486 33.8398 33.3262 33.6658C33.1664 33.4918 33.0397 33.2852 32.9534 33.0579C32.8671 32.8305 32.8229 32.5868 32.8232 32.3408V32.3408Z" fill="#9E9E9E"/>
<path d="M36.0483 32.3409C36.0484 32.1258 36.0095 31.9127 35.9339 31.714C35.8583 31.5152 35.7474 31.3346 35.6076 31.1825C35.4679 31.0304 35.3019 30.9098 35.1193 30.8276C34.9366 30.7454 34.7409 30.7032 34.5433 30.7034C34.3454 30.7028 34.1493 30.7447 33.9662 30.8267C33.7832 30.9087 33.6169 31.0293 33.4767 31.1814C33.3365 31.3335 33.2253 31.5142 33.1493 31.7131C33.0734 31.9121 33.0343 32.1254 33.0342 32.3409C33.0342 32.776 33.193 33.1932 33.4756 33.5009C33.7582 33.8085 34.1415 33.9814 34.5412 33.9814C34.9409 33.9814 35.3243 33.8085 35.6069 33.5009C35.8895 33.1932 36.0483 32.776 36.0483 32.3409V32.3409Z" fill="white"/>
<path d="M35.3966 33.3877H35.1188L34.5694 32.4241H34.1394V33.3877H33.9053V31.2985H34.7407C34.9025 31.2985 35.0642 31.3089 35.2083 31.4017C35.3523 31.4901 35.4233 31.6759 35.4233 31.8512C35.4233 32.2628 35.1591 32.4144 34.8172 32.4241L35.3966 33.3877V33.3877Z" fill="#9E9E9E"/>
<path d="M34.4992 32.2235C34.7688 32.2235 35.1865 32.2725 35.1865 31.8461C35.1865 31.5236 34.9257 31.485 34.6875 31.485H34.1401V32.2235H34.4992ZM40.0127 19.7571C40.0162 20.4154 39.8305 20.6234 39.3807 20.6234C39.1275 20.6234 38.9732 20.5023 38.9732 20.3285C38.9739 19.8708 39.5943 19.9785 40.0127 19.7571V19.7571ZM46.5993 19.5855C46.5993 19.9942 46.458 20.4035 46.0137 20.4035C45.5953 20.4035 45.5093 19.9748 45.5093 19.6048C45.5093 19.217 45.626 18.7727 46.0519 18.7727C46.4764 18.7727 46.5993 19.1955 46.5993 19.5855Z" fill="white"/>
</g>
<defs>
<clipPath id="clip0_3806_222">
<rect width="52" height="36" fill="white"/>
</clipPath>
</defs>
</svg>
